<?xml version="1.0" encoding="utf-8"?><svg viewBox="0 0 42 26" xmlns="http://www.w3.org/2000/svg" xmlns:xlink="http://www.w3.org/1999/xlink"><style>:root>svg{display:none}:root>svg:target{display:block}</style><svg fill="none" viewBox="0 0 42 24" id="arrow" xmlns="http://www.w3.org/2000/svg"><path d="M41.74 10.625H5.883l8.25-8.25L12.188.431.618 12l11.57 11.569 1.944-1.944-8.25-8.25H41.74v-2.75z" fill="#fff"/></svg><svg fill="none" viewBox="0 0 27 26" id="arrowDeg" xmlns="http://www.w3.org/2000/svg"><path d="M20.721 18.139h-2.04v-8.74L6.878 20.53 5.5 19.077 17.24 8.01H8.163V6.046H20.72V18.14z" fill="#fff"/></svg><svg fill="none" viewBox="0 0 10 10" id="btnClose" xmlns="http://www.w3.org/2000/svg"><path d="M6.101 5l3.74-3.739a.544.544 0 000-.773L9.512.16A.542.542 0 009.126 0a.542.542 0 00-.387.16L5 3.9 1.261.16A.542.542 0 00.874 0a.542.542 0 00-.386.16L.16.488a.547.547 0 000 .773l3.739 3.74L.16 8.738a.544.544 0 00-.16.387c0 .147.057.284.16.387l.328.327c.103.104.24.16.386.16a.542.542 0 00.387-.16l3.74-3.738L8.738 9.84c.103.104.24.16.387.16a.543.543 0 00.387-.16l.327-.327a.543.543 0 00.16-.387.544.544 0 00-.16-.387L6.101 5z" fill="#fff"/></svg></svg>